<svg width="15" height="19" viewBox="0 0 15 19" fill="none" xmlns="http://www.w3.org/2000/svg">
<path d="M7.5 0C3.35938 0 0 3.35938 0 7.5C0.009765 8.38867 0.170899 9.26758 0.483399 10.0977L0.463867 10.0928C1.25976 12.5781 5.19043 16.4453 7.49512 18.7549H7.5V18.75C9.38477 16.8652 12.3486 13.8428 13.8086 11.5576C14.1357 11.04 14.3945 10.5469 14.541 10.0928L14.5166 10.0977C14.8291 9.26758 14.9951 8.38867 15 7.5C15 3.35938 11.6455 0 7.5 0ZM7.5 4.61426C9.0918 4.61426 10.3857 5.9082 10.3857 7.5C10.3857 9.0918 9.0918 10.3857 7.5 10.3857C5.9082 10.3809 4.61914 9.0918 4.61914 7.5C4.61426 5.9082 5.9082 4.61914 7.5 4.61426Z" fill="black"/>
</svg>
