<svg width="24" height="24" viewBox="0 0 24 24" fill="none" xmlns="http://www.w3.org/2000/svg">
<path d="M7.19999 12C7.19999 13.3255 6.12548 14.4 4.79999 14.4C3.47451 14.4 2.39999 13.3255 2.39999 12C2.39999 10.6745 3.47451 9.6 4.79999 9.6C6.12548 9.6 7.19999 10.6745 7.19999 12Z" stroke="#2E2E2E" stroke-width="2"/>
<path d="M14.4 12C14.4 13.3255 13.3255 14.4 12 14.4C10.6745 14.4 9.59999 13.3255 9.59999 12C9.59999 10.6745 10.6745 9.6 12 9.6C13.3255 9.6 14.4 10.6745 14.4 12Z" stroke="#2E2E2E" stroke-width="2"/>
<path d="M21.6 12C21.6 13.3255 20.5255 14.4 19.2 14.4C17.8745 14.4 16.8 13.3255 16.8 12C16.8 10.6745 17.8745 9.6 19.2 9.6C20.5255 9.6 21.6 10.6745 21.6 12Z" stroke="#2E2E2E" stroke-width="2"/>
</svg>
