<svg width="24" height="24" viewBox="0 0 24 24" fill="none" xmlns="http://www.w3.org/2000/svg">
<path d="M14.118 10H18.882C19.2229 10 19.5581 10.0871 19.8558 10.2531C20.1536 10.4191 20.4039 10.6584 20.5832 10.9484C20.7624 11.2383 20.8646 11.5692 20.8799 11.9098C20.8953 12.2503 20.8234 12.5891 20.671 12.894L17.171 19.894C17.0049 20.2265 16.7494 20.5061 16.4332 20.7014C16.1171 20.8968 15.7527 21.0002 15.381 21H11.364C11.201 21 11.038 20.98 10.879 20.94L7.11804 20M14.118 10V5C14.118 4.46957 13.9073 3.96086 13.5323 3.58579C13.1572 3.21071 12.6485 3 12.118 3H12.023C11.523 3 11.118 3.405 11.118 3.905C11.118 4.619 10.907 5.317 10.51 5.911L7.11804 11V20M14.118 10H12.118M7.11804 20H5.11804C4.58761 20 4.0789 19.7893 3.70383 19.4142C3.32876 19.0391 3.11804 18.5304 3.11804 18V12C3.11804 11.4696 3.32876 10.9609 3.70383 10.5858C4.0789 10.2107 4.58761 10 5.11804 10H7.61804" stroke="#2E2E2E" stroke-width="2" stroke-linecap="round" stroke-linejoin="round"/>
</svg>
