<svg width="500" height="500" viewBox="0 0 500 500" fill="none" xmlns="http://www.w3.org/2000/svg">
<g clip-path="url(#clip0_1064_6151)">
<rect width="500" height="500" fill="#F5F5F5"/>
<path d="M5 281C-9.4 281 -15.6667 307.667 -18 314.5V409.5H514L517.5 317.5C503.5 305.167 504.5 281 486.5 281C464 281 456 310.5 416.5 310.5C377 310.5 367 281 331 281C295 281 288 310.5 243.5 310.5C211 310.5 197 281 160 281C125.5 281 112 310.5 73.5 310.5C35 310.5 23 281 5 281Z" fill="#E8E8E8"/>
<path d="M5 351C-9.4 351 -15.6667 375.591 -18 381.893V469.5H514L517.5 384.66C503.5 373.286 504.5 351 486.5 351C464 351 456 378.204 416.5 378.204C377 378.204 367 351 331 351C295 351 288 378.204 243.5 378.204C211 378.204 197 351 160 351C125.5 351 112 378.204 73.5 378.204C35 378.204 23 351 5 351Z" fill="#D7D7D7"/>
<path d="M5 411C-9.4 411 -15.6667 437.667 -18 444.5V539.5H514L517.5 447.5C503.5 435.167 504.5 411 486.5 411C464 411 456 440.5 416.5 440.5C377 440.5 367 411 331 411C295 411 288 440.5 243.5 440.5C211 440.5 197 411 160 411C125.5 411 112 440.5 73.5 440.5C35 440.5 23 411 5 411Z" fill="#CECECE"/>
</g>
<defs>
<clipPath id="clip0_1064_6151">
<rect width="500" height="500" fill="white"/>
</clipPath>
</defs>
</svg>
