<svg width="50" height="51" viewBox="0 0 50 51" fill="none" xmlns="http://www.w3.org/2000/svg">
<g clip-path="url(#clip0_307_2827)">
<path d="M0 0.101868H50V50.1019H0V0.101868Z" fill="#FAE164"/>
<path d="M25 9.10187C34.9411 9.10187 43 15.1772 43 22.6736C43 30.1683 34.9411 36.2437 25 36.2437C24.0101 36.2442 23.0212 36.1833 22.0394 36.0613L14.4829 40.8417C13.624 41.2811 13.3206 41.233 13.6737 40.1569L15.2029 34.0583C10.2657 31.6374 7 27.4424 7 22.6736C7 15.1789 15.0589 9.10187 25 9.10187ZM35.1263 22.4664L37.6463 20.1052C37.7917 19.9591 37.8728 19.7642 37.8726 19.5614C37.8723 19.3586 37.7907 19.1639 37.6449 19.0181C37.4992 18.8724 37.3006 18.7871 37.0911 18.7802C36.8816 18.7732 36.6774 18.8452 36.5217 18.981L33.2166 22.075V19.5182C33.2166 19.3106 33.1313 19.1116 32.9796 18.9648C32.8278 18.818 32.622 18.7356 32.4074 18.7356C32.1928 18.7356 31.987 18.818 31.8353 18.9648C31.6835 19.1116 31.5983 19.3106 31.5983 19.5182V23.758C31.568 23.879 31.568 24.0052 31.5983 24.1261V26.5122C31.5983 26.7197 31.6835 26.9188 31.8353 27.0656C31.987 27.2124 32.1928 27.2948 32.4074 27.2948C32.622 27.2948 32.8278 27.2124 32.9796 27.0656C33.1313 26.9188 33.2166 26.7197 33.2166 26.5122V24.2522L33.9486 23.5674L36.3966 26.9383C36.4577 27.0225 36.5354 27.0942 36.6251 27.1493C36.7149 27.2044 36.815 27.2419 36.9197 27.2596C37.0245 27.2773 37.1318 27.2749 37.2356 27.2525C37.3394 27.2301 37.4376 27.1881 37.5246 27.129C37.6116 27.0699 37.6857 26.9948 37.7427 26.9079C37.7997 26.8211 37.8385 26.7243 37.8568 26.623C37.8751 26.5217 37.8726 26.4179 37.8494 26.3175C37.8262 26.2171 37.7828 26.1221 37.7217 26.038L35.1263 22.4647V22.4664ZM30.0554 25.6566H27.5526V19.5431C27.543 19.342 27.4537 19.1521 27.3031 19.0131C27.1526 18.8741 26.9524 18.7965 26.7443 18.7965C26.5361 18.7965 26.336 18.8741 26.1855 19.0131C26.0349 19.1521 25.9456 19.342 25.936 19.5431V26.4392C25.936 26.8703 26.296 27.2219 26.7434 27.2219H30.0554C30.27 27.2219 30.4758 27.1394 30.6276 26.9926C30.7793 26.8459 30.8646 26.6468 30.8646 26.4392C30.8646 26.2317 30.7793 26.0326 30.6276 25.8858C30.4758 25.739 30.27 25.6566 30.0554 25.6566ZM20.0149 23.8459L21.208 21.0155L22.3017 23.8459H20.0149ZM24.34 24.6551L24.3434 24.6286C24.343 24.4314 24.2652 24.2417 24.1257 24.0979L22.3326 19.4552C22.2574 19.234 22.1142 19.0402 21.9222 18.8997C21.7301 18.7593 21.4983 18.6789 21.2577 18.6692C21.0154 18.6682 20.7785 18.7386 20.5785 18.871C20.3785 19.0034 20.225 19.1915 20.1383 19.4104L17.2909 26.1673C17.2507 26.2624 17.2303 26.3643 17.2308 26.4671C17.2313 26.5699 17.2528 26.6716 17.2939 26.7663C17.3351 26.8611 17.3951 26.9471 17.4706 27.0194C17.5461 27.0918 17.6356 27.149 17.734 27.1879C17.8324 27.2267 17.9377 27.2465 18.044 27.246C18.1502 27.2455 18.2554 27.2247 18.3533 27.1849C18.4513 27.1451 18.5402 27.087 18.615 27.014C18.6898 26.941 18.749 26.8544 18.7891 26.7592L19.3549 25.4112H22.9034L23.416 26.7377C23.4508 26.8368 23.5059 26.9282 23.5779 27.0064C23.65 27.0846 23.7375 27.148 23.8353 27.1929C23.9331 27.2378 24.0393 27.2632 24.1475 27.2677C24.2556 27.2722 24.3636 27.2556 24.4651 27.219C24.5665 27.1824 24.6593 27.1264 24.738 27.0545C24.8167 26.9825 24.8796 26.896 24.9231 26.8001C24.9666 26.7042 24.9897 26.6009 24.9912 26.4961C24.9926 26.3914 24.9723 26.2875 24.9314 26.1905L24.34 24.6551ZM18.6451 19.5514C18.6451 19.3441 18.5601 19.1453 18.4088 18.9986C18.2574 18.8518 18.052 18.7692 17.8377 18.7687H12.2749C12.0603 18.7687 11.8545 18.8512 11.7027 18.998C11.551 19.1447 11.4657 19.3438 11.4657 19.5514C11.4657 19.7589 11.551 19.958 11.7027 20.1048C11.8545 20.2516 12.0603 20.334 12.2749 20.334H14.2634V26.5288C14.2634 26.7363 14.3487 26.9354 14.5004 27.0822C14.6522 27.2289 14.858 27.3114 15.0726 27.3114C15.2872 27.3114 15.493 27.2289 15.6447 27.0822C15.7965 26.9354 15.8817 26.7363 15.8817 26.5288V20.334H17.836C18.2834 20.334 18.6451 19.9825 18.6451 19.5514Z" fill="#2E2E2E"/>
</g>
<defs>
<clipPath id="clip0_307_2827">
<rect y="0.101868" width="50" height="50" rx="10" fill="white"/>
</clipPath>
</defs>
</svg>
