<svg width="500" height="500" viewBox="0 0 500 500" fill="none" xmlns="http://www.w3.org/2000/svg">
<g clip-path="url(#clip0_304_1286)">
<rect width="500" height="500" fill="white"/>
<path d="M134.468 265.609C141.654 306.217 287.685 432.091 361.7 489.32L361.523 520.469L189.489 530.8L3.2928 428.862L29.5068 222.539L173.108 166.337C157.234 182.508 127.283 225.001 134.468 265.609Z" fill="#284AAA"/>
<path d="M28.7279 156.836C-48.9835 232.431 -63.4032 336.082 -60.8991 378.458L58.962 621.552C51.2541 556.141 35.3396 413.365 33.3448 365.55C30.8512 305.781 45.577 270.847 77.8551 233.235C110.133 195.624 153.933 191.065 170.848 197.558C187.762 204.051 180.009 212.426 191.707 217.493C203.404 222.56 216.855 204.385 221.132 190.315C225.41 176.246 217.83 159.797 205.818 152.201C193.806 144.604 174.828 152.498 171.043 136.368C167.258 120.238 222.443 115.054 219.921 101.138C217.4 87.2225 125.867 62.3431 28.7279 156.836Z" fill="#3A84EF"/>
<path d="M5 281C-9.4 281 -15.6667 307.667 -18 314.5V409.5H514L517.5 317.5C503.5 305.167 504.5 281 486.5 281C464 281 456 310.5 416.5 310.5C377 310.5 367 281 331 281C295 281 288 310.5 243.5 310.5C211 310.5 197 281 160 281C125.5 281 112 310.5 73.5 310.5C35 310.5 23 281 5 281Z" fill="#3A84EF"/>
<path d="M5 351C-9.4 351 -15.6667 375.591 -18 381.893V469.5H514L517.5 384.66C503.5 373.286 504.5 351 486.5 351C464 351 456 378.204 416.5 378.204C377 378.204 367 351 331 351C295 351 288 378.204 243.5 378.204C211 378.204 197 351 160 351C125.5 351 112 378.204 73.5 378.204C35 378.204 23 351 5 351Z" fill="#95CDFF"/>
<path d="M5 411C-9.4 411 -15.6667 437.667 -18 444.5V539.5H514L517.5 447.5C503.5 435.167 504.5 411 486.5 411C464 411 456 440.5 416.5 440.5C377 440.5 367 411 331 411C295 411 288 440.5 243.5 440.5C211 440.5 197 411 160 411C125.5 411 112 440.5 73.5 440.5C35 440.5 23 411 5 411Z" fill="#3A84EF"/>
</g>
<defs>
<clipPath id="clip0_304_1286">
<rect width="500" height="500" fill="white"/>
</clipPath>
</defs>
</svg>
