<svg width="47" height="18" viewBox="0 0 47 18" fill="none" xmlns="http://www.w3.org/2000/svg">
<rect x="0.3125" y="0.3125" width="46.375" height="17.375" rx="8.6875" fill="#3A84EF"/>
<rect x="0.3125" y="0.3125" width="46.375" height="17.375" rx="8.6875" stroke="#3A84EF" stroke-width="0.625"/>
<path d="M14.2949 5.06641H13.2988V7.57422C13.8496 7.53516 14.334 7.49219 14.752 7.44531L14.7988 8.26562C13.8613 8.40625 12.873 8.49805 11.834 8.54102C10.7949 8.58398 9.66992 8.60547 8.45898 8.60547L8.33008 7.71484L9.61914 7.70898V5.06641H8.62305V4.1875H14.2949V5.06641ZM16.5801 5.72266H18.1035V6.64844H16.5801V8.92188H15.4668V3.49609H16.5801V5.72266ZM16.5801 12.0039H10.9082V13H16.9434V13.8906H9.81836V11.1953H15.4785V10.2812H9.79492V9.40234H16.5801V12.0039ZM10.6973 7.69141C11.1973 7.67969 11.7012 7.66211 12.209 7.63867V5.06641H10.6973V7.69141ZM28.3105 12.7422H18.7012V11.8047H22.9316V9.96484H19.873V6.625H26.0371V5.14844H19.8496V4.23438H27.1387V7.51562H20.9746V9.05078H27.3848V9.96484H24.0332V11.8047H28.3105V12.7422ZM37.7793 9.71875H36.666V3.50781H37.7793V9.71875ZM34.252 9.92969C34.9824 9.92969 35.6152 10.0098 36.1504 10.1699C36.6855 10.3301 37.0957 10.5625 37.3809 10.8672C37.6699 11.168 37.8145 11.5312 37.8145 11.957C37.8145 12.3789 37.6699 12.7422 37.3809 13.0469C37.0918 13.3516 36.6797 13.582 36.1445 13.7383C35.6094 13.8984 34.9785 13.9766 34.252 13.9727C33.5176 13.9766 32.8809 13.8984 32.3418 13.7383C31.8066 13.582 31.3945 13.3516 31.1055 13.0469C30.8203 12.7422 30.6777 12.3789 30.6777 11.957C30.6777 11.5312 30.8203 11.166 31.1055 10.8613C31.3945 10.5566 31.8066 10.3262 32.3418 10.1699C32.877 10.0098 33.5137 9.92969 34.252 9.92969ZM34.252 10.8086C33.4746 10.8008 32.8711 10.8965 32.4414 11.0957C32.0156 11.2949 31.8027 11.582 31.8027 11.957C31.8027 12.3203 32.0156 12.6016 32.4414 12.8008C32.8711 12.9961 33.4746 13.0938 34.252 13.0938C35.0293 13.0938 35.6328 12.9961 36.0625 12.8008C36.4961 12.6016 36.7129 12.3203 36.7129 11.957C36.7129 11.5859 36.4961 11.3008 36.0625 11.1016C35.6328 10.8984 35.0293 10.8008 34.252 10.8086ZM32.084 4.14062C32.6152 4.14062 33.0918 4.24609 33.5137 4.45703C33.9395 4.66797 34.2715 4.96094 34.5098 5.33594C34.752 5.71094 34.873 6.13672 34.873 6.61328C34.873 7.09375 34.752 7.52148 34.5098 7.89648C34.2715 8.26758 33.9395 8.55859 33.5137 8.76953C33.0918 8.97656 32.6152 9.08203 32.084 9.08594C31.5527 9.08203 31.0742 8.97656 30.6484 8.76953C30.2227 8.55859 29.8887 8.26758 29.6465 7.89648C29.4043 7.52148 29.2832 7.09375 29.2832 6.61328C29.2832 6.13672 29.4043 5.71094 29.6465 5.33594C29.8887 4.96094 30.2227 4.66797 30.6484 4.45703C31.0742 4.24609 31.5527 4.14062 32.084 4.14062ZM32.084 5.08984C31.7559 5.08594 31.4609 5.14648 31.1992 5.27148C30.9414 5.39648 30.7383 5.57617 30.5898 5.81055C30.4453 6.04102 30.373 6.30859 30.373 6.61328C30.373 6.91797 30.4453 7.18555 30.5898 7.41602C30.7383 7.64648 30.9414 7.82617 31.1992 7.95508C31.457 8.08008 31.752 8.14453 32.084 8.14844C32.4121 8.14453 32.7051 8.08008 32.9629 7.95508C33.2207 7.82617 33.4219 7.64648 33.5664 7.41602C33.7109 7.18555 33.7832 6.91797 33.7832 6.61328C33.7832 6.30859 33.709 6.04102 33.5605 5.81055C33.416 5.57617 33.2148 5.39648 32.957 5.27148C32.6992 5.14648 32.4082 5.08594 32.084 5.08984Z" fill="white"/>
</svg>
