<svg width="47" height="18" viewBox="0 0 47 18" fill="none" xmlns="http://www.w3.org/2000/svg">
<rect x="0.3125" y="0.3125" width="46.375" height="17.375" rx="8.6875" fill="white"/>
<rect x="0.3125" y="0.3125" width="46.375" height="17.375" rx="8.6875" stroke="#3A84EF" stroke-width="0.625"/>
<path d="M14.2949 5.06641H13.2988V7.57422C13.8496 7.53516 14.334 7.49219 14.752 7.44531L14.7988 8.26562C13.8613 8.40625 12.873 8.49805 11.834 8.54102C10.7949 8.58398 9.66992 8.60547 8.45898 8.60547L8.33008 7.71484L9.61914 7.70898V5.06641H8.62305V4.1875H14.2949V5.06641ZM16.5801 5.72266H18.1035V6.64844H16.5801V8.92188H15.4668V3.49609H16.5801V5.72266ZM16.5801 12.0039H10.9082V13H16.9434V13.8906H9.81836V11.1953H15.4785V10.2812H9.79492V9.40234H16.5801V12.0039ZM10.6973 7.69141C11.1973 7.67969 11.7012 7.66211 12.209 7.63867V5.06641H10.6973V7.69141ZM28.3105 12.7422H18.7012V11.8047H22.9316V9.96484H19.873V6.625H26.0371V5.14844H19.8496V4.23438H27.1387V7.51562H20.9746V9.05078H27.3848V9.96484H24.0332V11.8047H28.3105V12.7422ZM38.6699 10.3867H34.3809V13.9961H33.291V10.3867H29.0605V9.46094H38.6699V10.3867ZM33.8418 3.89453C34.5762 3.89453 35.2246 3.99023 35.7871 4.18164C36.3535 4.36914 36.793 4.64062 37.1055 4.99609C37.4219 5.34766 37.5801 5.75781 37.5801 6.22656C37.5801 6.69141 37.4219 7.09961 37.1055 7.45117C36.793 7.79883 36.3535 8.06641 35.7871 8.25391C35.2246 8.44141 34.5762 8.53516 33.8418 8.53516C33.1035 8.53516 32.4512 8.44141 31.8848 8.25391C31.3223 8.06641 30.8848 7.79883 30.5723 7.45117C30.2598 7.09961 30.1035 6.69141 30.1035 6.22656C30.1035 5.75781 30.2598 5.34766 30.5723 4.99609C30.8848 4.64062 31.3223 4.36914 31.8848 4.18164C32.4512 3.99023 33.1035 3.89453 33.8418 3.89453ZM33.8418 4.78516C33.3223 4.78906 32.8672 4.84961 32.4766 4.9668C32.0859 5.08398 31.7832 5.25 31.5684 5.46484C31.3535 5.67969 31.248 5.93359 31.252 6.22656C31.248 6.51562 31.3535 6.76758 31.5684 6.98242C31.7832 7.19336 32.0859 7.35742 32.4766 7.47461C32.8672 7.58789 33.3223 7.64453 33.8418 7.64453C34.3613 7.64453 34.8164 7.58789 35.207 7.47461C35.5977 7.35742 35.9004 7.19336 36.1152 6.98242C36.334 6.76758 36.4434 6.51562 36.4434 6.22656C36.4434 5.93359 36.3359 5.67969 36.1211 5.46484C35.9062 5.25 35.6016 5.08398 35.207 4.9668C34.8164 4.84961 34.3613 4.78906 33.8418 4.78516Z" fill="#3A84EF"/>
</svg>
